# xmcd
#
# Track frame offsets: 
#        150
#        11239
#        21493
#        34193
#        45128
#        56821
#        68654
#        81364
#        93815
#        108153
#
# Disc length: 1613 seconds
#
# Revision: 0
# Processed by: cddbd v1.5.2PL0 Copyright (c) Steve Scherf et al.
# Submitted via: ExactAudioCopyFreeDBPlugin 1.0
#
DISCID=77064b0a
DTITLE=Darrell Banks - Darrell Banks is Here!
DYEAR=1967
DGENRE=R&B
TTITLE0=Here Come the Tears
TTITLE1=I've Got That Feelin'
TTITLE2=I'm gonna Hang my Head and Cry
TTITLE3=Look into the Eyes of a Fool
TTITLE4=Our Love (Is in the Pocket)
TTITLE5=Open the Door to Your Heart
TTITLE6=Angel Baby (Don't You Ever Leave Me)
TTITLE7=Somebody (Somewhere Needs You)
TTITLE8=Baby What'cha Got (for Me)
TTITLE9=You Better Go
EXTD=
EXTT0=
EXTT1=
EXTT2=
EXTT3=
EXTT4=
EXTT5=
EXTT6=
EXTT7=
EXTT8=
EXTT9=
PLAYORDER=
